<svg width="419" height="123" viewBox="0 0 419 123" fill="none" xmlns="http://www.w3.org/2000/svg">
<g filter="url(#filter0_d_110_69)">
<rect x="19" y="21.3229" width="389" height="80" rx="25" fill="#4167DA"/>
<rect x="19.5" y="21.8229" width="388" height="79" rx="24.5" stroke="#4167DA"/>
</g>
<path d="M38.6455 50.0529C39.7235 49.6616 41.0596 50.15 41.6944 51.0417L41.1236 49.4321C40.6587 48.1574 41.2392 47.0685 42.5152 46.6029C43.7904 46.1402 46.2934 48.9736 46.2934 48.9736C45.8246 47.6864 46.3346 46.3509 47.6221 45.8811C48.9088 45.4142 50.3339 46.0766 50.8022 47.3657L57.0573 64.2811L52.4423 76.3736L42.7831 69.6009L37.1551 53.2543C36.6813 51.9585 37.349 50.5255 38.6455 50.0529Z" fill="#EF9645"/>
<path d="M34.4338 57.4023C34.4338 57.4023 33.7674 55.5155 35.6549 54.8504C37.5404 54.1847 38.2061 56.0702 38.2061 56.0702L41.2961 64.8263C41.5491 64.5815 41.8175 64.3449 42.107 64.1181L37.8178 51.9669C37.8178 51.9669 37.1522 50.0814 39.0387 49.416C40.9242 48.7503 41.5899 50.6358 41.5899 50.6358L45.6239 62.0664C45.924 61.9315 46.2302 61.7972 46.5431 61.6688L41.8669 48.4159C41.8669 48.4159 41.2012 46.5304 43.0877 45.865C44.9733 45.1993 45.6389 47.0848 45.6389 47.0848L50.3157 60.3358C50.6441 60.2384 50.9633 60.1635 51.2859 60.0802L46.9145 47.6948C46.9145 47.6948 46.2489 45.8092 48.1344 45.1435C50.0199 44.4779 50.6856 46.3634 50.6856 46.3634L55.3075 59.4599L56.0099 61.4516C50.3521 63.4493 48.2446 69.4948 49.9081 74.209C50.2404 75.1521 51.1835 74.8199 51.1835 74.8199C49.187 69.1614 51.627 64.058 57.2855 62.0615L57.7661 54.6307C57.7661 54.6307 57.7377 52.6312 59.7365 52.6015C61.736 52.573 61.7654 54.5728 61.7654 54.5728L62.0978 59.8424C62.2296 61.9317 62.4047 64.0253 62.8296 66.0752C64.0295 71.863 60.7982 77.7906 55.0694 79.8138C48.8208 82.0187 41.9649 78.7395 39.7588 72.4916L34.4338 57.4023Z" fill="#FFDC5D"/>
<path d="M39.6156 74.0155C35.7519 72.9802 32.8937 68.0298 33.929 64.1661C34.0721 63.6319 33.7966 63.0953 33.2625 62.9522C32.7283 62.8091 32.1403 63.1143 31.9972 63.6485C30.4442 69.444 33.3024 74.3944 39.0979 75.9473C39.6321 76.0905 40.1904 75.7338 40.3335 75.1997C40.4767 74.6655 40.1497 74.1586 39.6156 74.0155Z" fill="#5DADEC"/>
<path d="M34.2791 74.6127C31.3814 73.8362 29.9671 71.3867 30.7436 68.4889C30.8867 67.9548 30.5707 67.4073 30.0365 67.2642C29.5023 67.1211 28.9549 67.4372 28.8118 67.9713C27.7765 71.835 29.8978 75.5092 33.7615 76.5445C34.2957 76.6876 34.8431 76.3716 34.9862 75.8374C35.1294 75.3033 34.8133 74.7558 34.2791 74.6127ZM58.9821 48.103C58.4489 47.9601 57.9002 48.2769 57.7573 48.8101C57.6145 49.3433 57.9313 49.892 58.4644 50.0348C62.3282 51.0701 65.263 55.5721 64.1213 59.8328C63.9784 60.366 64.2952 60.9147 64.8284 61.0575C65.3616 61.2004 65.9103 60.8836 66.0532 60.3504C67.4803 55.0243 64.7776 49.6559 58.9821 48.103Z" fill="#5DADEC"/>
<path d="M64.3185 47.5058C63.7853 47.3629 63.2475 47.6391 63.1046 48.1723C62.9618 48.7055 63.2677 49.2948 63.8009 49.4376C66.6986 50.2141 68.014 52.87 67.3067 55.5099C67.1638 56.0431 67.5202 56.6024 68.0544 56.7455C68.5885 56.8887 69.0957 56.5607 69.2385 56.0276C70.2316 52.3213 68.1822 48.5411 64.3185 47.5058Z" fill="#5DADEC"/>
<g filter="url(#filter1_d_110_69)">
<rect x="10.8077" y="33.849" width="388" height="79" rx="24.5" transform="rotate(-3.49 10.8077 33.849)" stroke="#4167DA"/>
</g>
<path d="M94.032 32.832L90.912 44H88.272L86.176 36.048L83.984 44L81.36 44.016L78.352 32.832H80.752L82.72 41.504L84.992 32.832H87.488L89.632 41.456L91.616 32.832H94.032ZM103.735 39.376C103.735 39.696 103.713 39.984 103.671 40.24H97.1907C97.244 40.88 97.468 41.3814 97.8627 41.744C98.2573 42.1067 98.7427 42.288 99.3187 42.288C100.151 42.288 100.743 41.9307 101.095 41.216H103.511C103.255 42.0694 102.764 42.7734 102.039 43.328C101.313 43.872 100.423 44.144 99.3667 44.144C98.5133 44.144 97.7453 43.9574 97.0627 43.584C96.3907 43.2 95.8627 42.6614 95.4787 41.968C95.1053 41.2747 94.9187 40.4747 94.9187 39.568C94.9187 38.6507 95.1053 37.8454 95.4787 37.152C95.852 36.4587 96.3747 35.9254 97.0467 35.552C97.7187 35.1787 98.492 34.992 99.3667 34.992C100.209 34.992 100.961 35.1734 101.623 35.536C102.295 35.8987 102.812 36.416 103.175 37.088C103.548 37.7494 103.735 38.512 103.735 39.376ZM101.415 38.736C101.404 38.16 101.196 37.7014 100.791 37.36C100.385 37.008 99.8893 36.832 99.3027 36.832C98.748 36.832 98.2787 37.0027 97.8947 37.344C97.5213 37.6747 97.292 38.1387 97.2067 38.736H101.415ZM107.61 32.16V44H105.37V32.16H107.61ZM109.247 39.568C109.247 38.6507 109.433 37.8507 109.807 37.168C110.18 36.4747 110.697 35.9414 111.359 35.568C112.02 35.184 112.777 34.992 113.631 34.992C114.729 34.992 115.636 35.2694 116.351 35.824C117.076 36.368 117.561 37.136 117.807 38.128H115.391C115.263 37.744 115.044 37.4454 114.735 37.232C114.436 37.008 114.063 36.896 113.615 36.896C112.975 36.896 112.468 37.1307 112.095 37.6C111.721 38.0587 111.535 38.7147 111.535 39.568C111.535 40.4107 111.721 41.0667 112.095 41.536C112.468 41.9947 112.975 42.224 113.615 42.224C114.521 42.224 115.113 41.8187 115.391 41.008H117.807C117.561 41.968 117.076 42.7307 116.351 43.296C115.625 43.8614 114.719 44.144 113.631 44.144C112.777 44.144 112.02 43.9574 111.359 43.584C110.697 43.2 110.18 42.6667 109.807 41.984C109.433 41.2907 109.247 40.4854 109.247 39.568ZM123.384 44.144C122.53 44.144 121.762 43.9574 121.08 43.584C120.397 43.2 119.858 42.6614 119.464 41.968C119.08 41.2747 118.888 40.4747 118.888 39.568C118.888 38.6614 119.085 37.8614 119.48 37.168C119.885 36.4747 120.434 35.9414 121.128 35.568C121.821 35.184 122.594 34.992 123.448 34.992C124.301 34.992 125.074 35.184 125.768 35.568C126.461 35.9414 127.005 36.4747 127.4 37.168C127.805 37.8614 128.008 38.6614 128.008 39.568C128.008 40.4747 127.8 41.2747 127.384 41.968C126.978 42.6614 126.424 43.2 125.72 43.584C125.026 43.9574 124.248 44.144 123.384 44.144ZM123.384 42.192C123.789 42.192 124.168 42.096 124.52 41.904C124.882 41.7014 125.17 41.4027 125.384 41.008C125.597 40.6134 125.704 40.1334 125.704 39.568C125.704 38.7254 125.48 38.08 125.032 37.632C124.594 37.1734 124.056 36.944 123.416 36.944C122.776 36.944 122.237 37.1734 121.8 37.632C121.373 38.08 121.16 38.7254 121.16 39.568C121.16 40.4107 121.368 41.0614 121.784 41.52C122.21 41.968 122.744 42.192 123.384 42.192ZM140.659 35.008C141.747 35.008 142.622 35.344 143.283 36.016C143.955 36.6774 144.291 37.6054 144.291 38.8V44H142.051V39.104C142.051 38.4107 141.875 37.8827 141.523 37.52C141.171 37.1467 140.691 36.96 140.083 36.96C139.475 36.96 138.99 37.1467 138.627 37.52C138.275 37.8827 138.099 38.4107 138.099 39.104V44H135.859V39.104C135.859 38.4107 135.683 37.8827 135.331 37.52C134.979 37.1467 134.499 36.96 133.891 36.96C133.272 36.96 132.782 37.1467 132.419 37.52C132.067 37.8827 131.891 38.4107 131.891 39.104V44H129.651V35.136H131.891V36.208C132.179 35.8347 132.547 35.5414 132.995 35.328C133.454 35.1147 133.955 35.008 134.499 35.008C135.192 35.008 135.811 35.1574 136.355 35.456C136.899 35.744 137.32 36.16 137.619 36.704C137.907 36.192 138.323 35.7814 138.867 35.472C139.422 35.1627 140.019 35.008 140.659 35.008ZM154.657 39.376C154.657 39.696 154.635 39.984 154.593 40.24H148.113C148.166 40.88 148.39 41.3814 148.785 41.744C149.179 42.1067 149.665 42.288 150.241 42.288C151.073 42.288 151.665 41.9307 152.017 41.216H154.433C154.177 42.0694 153.686 42.7734 152.961 43.328C152.235 43.872 151.345 44.144 150.289 44.144C149.435 44.144 148.667 43.9574 147.985 43.584C147.313 43.2 146.785 42.6614 146.401 41.968C146.027 41.2747 145.841 40.4747 145.841 39.568C145.841 38.6507 146.027 37.8454 146.401 37.152C146.774 36.4587 147.297 35.9254 147.969 35.552C148.641 35.1787 149.414 34.992 150.289 34.992C151.131 34.992 151.883 35.1734 152.545 35.536C153.217 35.8987 153.734 36.416 154.097 37.088C154.47 37.7494 154.657 38.512 154.657 39.376ZM152.337 38.736C152.326 38.16 152.118 37.7014 151.713 37.36C151.307 37.008 150.811 36.832 150.225 36.832C149.67 36.832 149.201 37.0027 148.817 37.344C148.443 37.6747 148.214 38.1387 148.129 38.736H152.337ZM162.712 36.976V41.264C162.712 41.5627 162.781 41.7814 162.92 41.92C163.069 42.048 163.315 42.112 163.656 42.112H164.696V44H163.288C161.4 44 160.456 43.0827 160.456 41.248V36.976H159.4V35.136H160.456V32.944H162.712V35.136H164.696V36.976H162.712ZM170.243 44.144C169.39 44.144 168.622 43.9574 167.939 43.584C167.256 43.2 166.718 42.6614 166.323 41.968C165.939 41.2747 165.747 40.4747 165.747 39.568C165.747 38.6614 165.944 37.8614 166.339 37.168C166.744 36.4747 167.294 35.9414 167.987 35.568C168.68 35.184 169.454 34.992 170.307 34.992C171.16 34.992 171.934 35.184 172.627 35.568C173.32 35.9414 173.864 36.4747 174.259 37.168C174.664 37.8614 174.867 38.6614 174.867 39.568C174.867 40.4747 174.659 41.2747 174.243 41.968C173.838 42.6614 173.283 43.2 172.579 43.584C171.886 43.9574 171.107 44.144 170.243 44.144ZM170.243 42.192C170.648 42.192 171.027 42.096 171.379 41.904C171.742 41.7014 172.03 41.4027 172.243 41.008C172.456 40.6134 172.563 40.1334 172.563 39.568C172.563 38.7254 172.339 38.08 171.891 37.632C171.454 37.1734 170.915 36.944 170.275 36.944C169.635 36.944 169.096 37.1734 168.659 37.632C168.232 38.08 168.019 38.7254 168.019 39.568C168.019 40.4107 168.227 41.0614 168.643 41.52C169.07 41.968 169.603 42.192 170.243 42.192ZM188.039 32.832C189.213 32.832 190.242 33.0614 191.127 33.52C192.023 33.9787 192.711 34.6347 193.191 35.488C193.682 36.3307 193.927 37.312 193.927 38.432C193.927 39.552 193.682 40.5334 193.191 41.376C192.711 42.208 192.023 42.8534 191.127 43.312C190.242 43.7707 189.213 44 188.039 44H184.135V32.832H188.039ZM187.959 42.096C189.133 42.096 190.039 41.776 190.679 41.136C191.319 40.496 191.639 39.5947 191.639 38.432C191.639 37.2694 191.319 36.3627 190.679 35.712C190.039 35.0507 189.133 34.72 187.959 34.72H186.375V42.096H187.959ZM203.844 39.376C203.844 39.696 203.823 39.984 203.78 40.24H197.3C197.353 40.88 197.577 41.3814 197.972 41.744C198.367 42.1067 198.852 42.288 199.428 42.288C200.26 42.288 200.852 41.9307 201.204 41.216H203.62C203.364 42.0694 202.873 42.7734 202.148 43.328C201.423 43.872 200.532 44.144 199.476 44.144C198.623 44.144 197.855 43.9574 197.172 43.584C196.5 43.2 195.972 42.6614 195.588 41.968C195.215 41.2747 195.028 40.4747 195.028 39.568C195.028 38.6507 195.215 37.8454 195.588 37.152C195.961 36.4587 196.484 35.9254 197.156 35.552C197.828 35.1787 198.601 34.992 199.476 34.992C200.319 34.992 201.071 35.1734 201.732 35.536C202.404 35.8987 202.921 36.416 203.284 37.088C203.657 37.7494 203.844 38.512 203.844 39.376ZM201.524 38.736C201.513 38.16 201.305 37.7014 200.9 37.36C200.495 37.008 199.999 36.832 199.412 36.832C198.857 36.832 198.388 37.0027 198.004 37.344C197.631 37.6747 197.401 38.1387 197.316 38.736H201.524ZM208.871 44.144C208.146 44.144 207.495 44.016 206.919 43.76C206.343 43.4934 205.884 43.136 205.543 42.688C205.212 42.24 205.031 41.744 204.999 41.2H207.255C207.298 41.5414 207.463 41.824 207.751 42.048C208.05 42.272 208.418 42.384 208.855 42.384C209.282 42.384 209.612 42.2987 209.847 42.128C210.092 41.9574 210.215 41.7387 210.215 41.472C210.215 41.184 210.066 40.9707 209.767 40.832C209.479 40.6827 209.015 40.5227 208.375 40.352C207.714 40.192 207.17 40.0267 206.743 39.856C206.327 39.6854 205.964 39.424 205.655 39.072C205.356 38.72 205.207 38.2454 205.207 37.648C205.207 37.1574 205.346 36.7094 205.623 36.304C205.911 35.8987 206.316 35.5787 206.839 35.344C207.372 35.1094 207.996 34.992 208.711 34.992C209.767 34.992 210.61 35.2587 211.239 35.792C211.868 36.3147 212.215 37.024 212.279 37.92H210.135C210.103 37.568 209.954 37.2907 209.687 37.088C209.431 36.8747 209.084 36.768 208.647 36.768C208.242 36.768 207.927 36.8427 207.703 36.992C207.49 37.1414 207.383 37.3494 207.383 37.616C207.383 37.9147 207.532 38.144 207.831 38.304C208.13 38.4534 208.594 38.608 209.223 38.768C209.863 38.928 210.391 39.0934 210.807 39.264C211.223 39.4347 211.58 39.7014 211.879 40.064C212.188 40.416 212.348 40.8854 212.359 41.472C212.359 41.984 212.215 42.4427 211.927 42.848C211.65 43.2534 211.244 43.5734 210.711 43.808C210.188 44.032 209.575 44.144 208.871 44.144ZM215.334 34.08C214.939 34.08 214.608 33.9574 214.342 33.712C214.086 33.456 213.958 33.1414 213.958 32.768C213.958 32.3947 214.086 32.0854 214.342 31.84C214.608 31.584 214.939 31.456 215.334 31.456C215.728 31.456 216.054 31.584 216.31 31.84C216.576 32.0854 216.71 32.3947 216.71 32.768C216.71 33.1414 216.576 33.456 216.31 33.712C216.054 33.9574 215.728 34.08 215.334 34.08ZM216.438 35.136V44H214.198V35.136H216.438ZM222.123 34.992C222.784 34.992 223.366 35.1254 223.867 35.392C224.368 35.648 224.763 35.984 225.051 36.4V35.136H227.307V44.064C227.307 44.8854 227.142 45.616 226.811 46.256C226.48 46.9067 225.984 47.4187 225.323 47.792C224.662 48.176 223.862 48.368 222.923 48.368C221.664 48.368 220.63 48.0747 219.819 47.488C219.019 46.9014 218.566 46.1014 218.459 45.088H220.683C220.8 45.4934 221.051 45.8134 221.435 46.048C221.83 46.2934 222.304 46.416 222.859 46.416C223.51 46.416 224.038 46.2187 224.443 45.824C224.848 45.44 225.051 44.8534 225.051 44.064V42.688C224.763 43.104 224.363 43.4507 223.851 43.728C223.35 44.0054 222.774 44.144 222.123 44.144C221.376 44.144 220.694 43.952 220.075 43.568C219.456 43.184 218.966 42.6454 218.603 41.952C218.251 41.248 218.075 40.4427 218.075 39.536C218.075 38.64 218.251 37.8454 218.603 37.152C218.966 36.4587 219.451 35.9254 220.059 35.552C220.678 35.1787 221.366 34.992 222.123 34.992ZM225.051 39.568C225.051 39.024 224.944 38.56 224.731 38.176C224.518 37.7814 224.23 37.4827 223.867 37.28C223.504 37.0667 223.115 36.96 222.699 36.96C222.283 36.96 221.899 37.0614 221.547 37.264C221.195 37.4667 220.907 37.7654 220.683 38.16C220.47 38.544 220.363 39.0027 220.363 39.536C220.363 40.0694 220.47 40.5387 220.683 40.944C220.907 41.3387 221.195 41.6427 221.547 41.856C221.91 42.0694 222.294 42.176 222.699 42.176C223.115 42.176 223.504 42.0747 223.867 41.872C224.23 41.6587 224.518 41.36 224.731 40.976C224.944 40.5814 225.051 40.112 225.051 39.568ZM234.407 35.008C235.463 35.008 236.316 35.344 236.967 36.016C237.617 36.6774 237.943 37.6054 237.943 38.8V44H235.703V39.104C235.703 38.4 235.527 37.8614 235.175 37.488C234.823 37.104 234.343 36.912 233.735 36.912C233.116 36.912 232.625 37.104 232.263 37.488C231.911 37.8614 231.735 38.4 231.735 39.104V44H229.495V35.136H231.735V36.24C232.033 35.856 232.412 35.5574 232.871 35.344C233.34 35.12 233.852 35.008 234.407 35.008ZM243.341 38.4C243.341 37.3014 243.587 36.32 244.077 35.456C244.579 34.5814 245.256 33.904 246.109 33.424C246.973 32.9334 247.939 32.688 249.005 32.688C250.253 32.688 251.347 33.008 252.285 33.648C253.224 34.288 253.88 35.1734 254.253 36.304H251.677C251.421 35.7707 251.059 35.3707 250.589 35.104C250.131 34.8374 249.597 34.704 248.989 34.704C248.339 34.704 247.757 34.8587 247.245 35.168C246.744 35.4667 246.349 35.8934 246.061 36.448C245.784 37.0027 245.645 37.6534 245.645 38.4C245.645 39.136 245.784 39.7867 246.061 40.352C246.349 40.9067 246.744 41.3387 247.245 41.648C247.757 41.9467 248.339 42.096 248.989 42.096C249.597 42.096 250.131 41.9627 250.589 41.696C251.059 41.4187 251.421 41.0134 251.677 40.48H254.253C253.88 41.6214 253.224 42.512 252.285 43.152C251.357 43.7814 250.264 44.096 249.005 44.096C247.939 44.096 246.973 43.856 246.109 43.376C245.256 42.8854 244.579 42.208 244.077 41.344C243.587 40.48 243.341 39.4987 243.341 38.4ZM261.159 35.008C261.831 35.008 262.428 35.1574 262.951 35.456C263.473 35.744 263.879 36.176 264.167 36.752C264.465 37.3174 264.615 38 264.615 38.8V44H262.375V39.104C262.375 38.4 262.199 37.8614 261.847 37.488C261.495 37.104 261.015 36.912 260.407 36.912C259.788 36.912 259.297 37.104 258.935 37.488C258.583 37.8614 258.407 38.4 258.407 39.104V44H256.167V32.16H258.407V36.24C258.695 35.856 259.079 35.5574 259.559 35.344C260.039 35.12 260.572 35.008 261.159 35.008ZM266.169 39.536C266.169 38.64 266.345 37.8454 266.697 37.152C267.059 36.4587 267.545 35.9254 268.153 35.552C268.771 35.1787 269.459 34.992 270.217 34.992C270.878 34.992 271.454 35.1254 271.945 35.392C272.446 35.6587 272.846 35.9947 273.145 36.4V35.136H275.401V44H273.145V42.704C272.857 43.12 272.457 43.4667 271.945 43.744C271.443 44.0107 270.862 44.144 270.201 44.144C269.454 44.144 268.771 43.952 268.153 43.568C267.545 43.184 267.059 42.6454 266.697 41.952C266.345 41.248 266.169 40.4427 266.169 39.536ZM273.145 39.568C273.145 39.024 273.038 38.56 272.825 38.176C272.611 37.7814 272.323 37.4827 271.961 37.28C271.598 37.0667 271.209 36.96 270.793 36.96C270.377 36.96 269.993 37.0614 269.641 37.264C269.289 37.4667 269.001 37.7654 268.777 38.16C268.563 38.544 268.457 39.0027 268.457 39.536C268.457 40.0694 268.563 40.5387 268.777 40.944C269.001 41.3387 269.289 41.6427 269.641 41.856C270.003 42.0694 270.387 42.176 270.793 42.176C271.209 42.176 271.598 42.0747 271.961 41.872C272.323 41.6587 272.611 41.36 272.825 40.976C273.038 40.5814 273.145 40.112 273.145 39.568ZM279.828 32.16V44H277.588V32.16H279.828ZM284.282 32.16V44H282.042V32.16H284.282ZM285.919 39.536C285.919 38.64 286.095 37.8454 286.447 37.152C286.809 36.4587 287.295 35.9254 287.903 35.552C288.521 35.1787 289.209 34.992 289.967 34.992C290.628 34.992 291.204 35.1254 291.695 35.392C292.196 35.6587 292.596 35.9947 292.895 36.4V35.136H295.151V44H292.895V42.704C292.607 43.12 292.207 43.4667 291.695 43.744C291.193 44.0107 290.612 44.144 289.951 44.144C289.204 44.144 288.521 43.952 287.903 43.568C287.295 43.184 286.809 42.6454 286.447 41.952C286.095 41.248 285.919 40.4427 285.919 39.536ZM292.895 39.568C292.895 39.024 292.788 38.56 292.575 38.176C292.361 37.7814 292.073 37.4827 291.711 37.28C291.348 37.0667 290.959 36.96 290.543 36.96C290.127 36.96 289.743 37.0614 289.391 37.264C289.039 37.4667 288.751 37.7654 288.527 38.16C288.313 38.544 288.207 39.0027 288.207 39.536C288.207 40.0694 288.313 40.5387 288.527 40.944C288.751 41.3387 289.039 41.6427 289.391 41.856C289.753 42.0694 290.137 42.176 290.543 42.176C290.959 42.176 291.348 42.0747 291.711 41.872C292.073 41.6587 292.361 41.36 292.575 40.976C292.788 40.5814 292.895 40.112 292.895 39.568ZM302.25 35.008C303.306 35.008 304.16 35.344 304.81 36.016C305.461 36.6774 305.786 37.6054 305.786 38.8V44H303.546V39.104C303.546 38.4 303.37 37.8614 303.018 37.488C302.666 37.104 302.186 36.912 301.578 36.912C300.96 36.912 300.469 37.104 300.106 37.488C299.754 37.8614 299.578 38.4 299.578 39.104V44H297.338V35.136H299.578V36.24C299.877 35.856 300.256 35.5574 300.714 35.344C301.184 35.12 301.696 35.008 302.25 35.008ZM311.389 34.992C312.05 34.992 312.631 35.1254 313.133 35.392C313.634 35.648 314.029 35.984 314.317 36.4V35.136H316.573V44.064C316.573 44.8854 316.407 45.616 316.077 46.256C315.746 46.9067 315.25 47.4187 314.589 47.792C313.927 48.176 313.127 48.368 312.189 48.368C310.93 48.368 309.895 48.0747 309.085 47.488C308.285 46.9014 307.831 46.1014 307.725 45.088H309.949C310.066 45.4934 310.317 45.8134 310.701 46.048C311.095 46.2934 311.57 46.416 312.125 46.416C312.775 46.416 313.303 46.2187 313.709 45.824C314.114 45.44 314.317 44.8534 314.317 44.064V42.688C314.029 43.104 313.629 43.4507 313.117 43.728C312.615 44.0054 312.039 44.144 311.389 44.144C310.642 44.144 309.959 43.952 309.341 43.568C308.722 43.184 308.231 42.6454 307.869 41.952C307.517 41.248 307.341 40.4427 307.341 39.536C307.341 38.64 307.517 37.8454 307.869 37.152C308.231 36.4587 308.717 35.9254 309.325 35.552C309.943 35.1787 310.631 34.992 311.389 34.992ZM314.317 39.568C314.317 39.024 314.21 38.56 313.997 38.176C313.783 37.7814 313.495 37.4827 313.133 37.28C312.77 37.0667 312.381 36.96 311.965 36.96C311.549 36.96 311.165 37.0614 310.813 37.264C310.461 37.4667 310.173 37.7654 309.949 38.16C309.735 38.544 309.629 39.0027 309.629 39.536C309.629 40.0694 309.735 40.5387 309.949 40.944C310.173 41.3387 310.461 41.6427 310.813 41.856C311.175 42.0694 311.559 42.176 311.965 42.176C312.381 42.176 312.77 42.0747 313.133 41.872C313.495 41.6587 313.783 41.36 313.997 40.976C314.21 40.5814 314.317 40.112 314.317 39.568ZM327 39.376C327 39.696 326.979 39.984 326.936 40.24H320.456C320.51 40.88 320.734 41.3814 321.128 41.744C321.523 42.1067 322.008 42.288 322.584 42.288C323.416 42.288 324.008 41.9307 324.36 41.216H326.776C326.52 42.0694 326.03 42.7734 325.304 43.328C324.579 43.872 323.688 44.144 322.632 44.144C321.779 44.144 321.011 43.9574 320.328 43.584C319.656 43.2 319.128 42.6614 318.744 41.968C318.371 41.2747 318.184 40.4747 318.184 39.568C318.184 38.6507 318.371 37.8454 318.744 37.152C319.118 36.4587 319.64 35.9254 320.312 35.552C320.984 35.1787 321.758 34.992 322.632 34.992C323.475 34.992 324.227 35.1734 324.888 35.536C325.56 35.8987 326.078 36.416 326.44 37.088C326.814 37.7494 327 38.512 327 39.376ZM324.68 38.736C324.67 38.16 324.462 37.7014 324.056 37.36C323.651 37.008 323.155 36.832 322.568 36.832C322.014 36.832 321.544 37.0027 321.16 37.344C320.787 37.6747 320.558 38.1387 320.472 38.736H324.68ZM78.56 62.4C78.56 61.3014 78.8054 60.32 79.296 59.456C79.7974 58.5814 80.4747 57.904 81.328 57.424C82.192 56.9334 83.1574 56.688 84.224 56.688C85.472 56.688 86.5654 57.008 87.504 57.648C88.4427 58.288 89.0987 59.1734 89.472 60.304H86.896C86.64 59.7707 86.2774 59.3707 85.808 59.104C85.3494 58.8374 84.816 58.704 84.208 58.704C83.5574 58.704 82.976 58.8587 82.464 59.168C81.9627 59.4667 81.568 59.8934 81.28 60.448C81.0027 61.0027 80.864 61.6534 80.864 62.4C80.864 63.136 81.0027 63.7867 81.28 64.352C81.568 64.9067 81.9627 65.3387 82.464 65.648C82.976 65.9467 83.5574 66.096 84.208 66.096C84.816 66.096 85.3494 65.9627 85.808 65.696C86.2774 65.4187 86.64 65.0134 86.896 64.48H89.472C89.0987 65.6214 88.4427 66.512 87.504 67.152C86.576 67.7814 85.4827 68.096 84.224 68.096C83.1574 68.096 82.192 67.856 81.328 67.376C80.4747 66.8854 79.7974 66.208 79.296 65.344C78.8054 64.48 78.56 63.4987 78.56 62.4ZM99.7533 59.136V68H97.4973V66.88C97.2093 67.264 96.8306 67.568 96.3613 67.792C95.9026 68.0054 95.4013 68.112 94.8573 68.112C94.1639 68.112 93.5506 67.968 93.0173 67.68C92.4839 67.3814 92.0626 66.9494 91.7533 66.384C91.4546 65.808 91.3053 65.1254 91.3053 64.336V59.136H93.5453V64.016C93.5453 64.72 93.7213 65.264 94.0733 65.648C94.4253 66.0214 94.9053 66.208 95.5133 66.208C96.1319 66.208 96.6173 66.0214 96.9693 65.648C97.3213 65.264 97.4973 64.72 97.4973 64.016V59.136H99.7533ZM105.355 68.144C104.63 68.144 103.979 68.016 103.403 67.76C102.827 67.4934 102.369 67.136 102.027 66.688C101.697 66.24 101.515 65.744 101.483 65.2H103.739C103.782 65.5414 103.947 65.824 104.235 66.048C104.534 66.272 104.902 66.384 105.339 66.384C105.766 66.384 106.097 66.2987 106.331 66.128C106.577 65.9574 106.699 65.7387 106.699 65.472C106.699 65.184 106.55 64.9707 106.251 64.832C105.963 64.6827 105.499 64.5227 104.859 64.352C104.198 64.192 103.654 64.0267 103.227 63.856C102.811 63.6854 102.449 63.424 102.139 63.072C101.841 62.72 101.691 62.2454 101.691 61.648C101.691 61.1574 101.83 60.7094 102.107 60.304C102.395 59.8987 102.801 59.5787 103.323 59.344C103.857 59.1094 104.481 58.992 105.195 58.992C106.251 58.992 107.094 59.2587 107.723 59.792C108.353 60.3147 108.699 61.024 108.763 61.92H106.619C106.587 61.568 106.438 61.2907 106.171 61.088C105.915 60.8747 105.569 60.768 105.131 60.768C104.726 60.768 104.411 60.8427 104.187 60.992C103.974 61.1414 103.867 61.3494 103.867 61.616C103.867 61.9147 104.017 62.144 104.315 62.304C104.614 62.4534 105.078 62.608 105.707 62.768C106.347 62.928 106.875 63.0934 107.291 63.264C107.707 63.4347 108.065 63.7014 108.363 64.064C108.673 64.416 108.833 64.8854 108.843 65.472C108.843 65.984 108.699 66.4427 108.411 66.848C108.134 67.2534 107.729 67.5734 107.195 67.808C106.673 68.032 106.059 68.144 105.355 68.144ZM113.29 60.976V65.264C113.29 65.5627 113.359 65.7814 113.498 65.92C113.647 66.048 113.893 66.112 114.234 66.112H115.274V68H113.866C111.978 68 111.034 67.0827 111.034 65.248V60.976H109.978V59.136H111.034V56.944H113.29V59.136H115.274V60.976H113.29ZM120.821 68.144C119.968 68.144 119.2 67.9574 118.517 67.584C117.835 67.2 117.296 66.6614 116.901 65.968C116.517 65.2747 116.325 64.4747 116.325 63.568C116.325 62.6614 116.523 61.8614 116.917 61.168C117.323 60.4747 117.872 59.9414 118.565 59.568C119.259 59.184 120.032 58.992 120.885 58.992C121.739 58.992 122.512 59.184 123.205 59.568C123.899 59.9414 124.443 60.4747 124.837 61.168C125.243 61.8614 125.445 62.6614 125.445 63.568C125.445 64.4747 125.237 65.2747 124.821 65.968C124.416 66.6614 123.861 67.2 123.157 67.584C122.464 67.9574 121.685 68.144 120.821 68.144ZM120.821 66.192C121.227 66.192 121.605 66.096 121.957 65.904C122.32 65.7014 122.608 65.4027 122.821 65.008C123.035 64.6134 123.141 64.1334 123.141 63.568C123.141 62.7254 122.917 62.08 122.469 61.632C122.032 61.1734 121.493 60.944 120.853 60.944C120.213 60.944 119.675 61.1734 119.237 61.632C118.811 62.08 118.597 62.7254 118.597 63.568C118.597 64.4107 118.805 65.0614 119.221 65.52C119.648 65.968 120.181 66.192 120.821 66.192ZM138.096 59.008C139.184 59.008 140.059 59.344 140.72 60.016C141.392 60.6774 141.728 61.6054 141.728 62.8V68H139.488V63.104C139.488 62.4107 139.312 61.8827 138.96 61.52C138.608 61.1467 138.128 60.96 137.52 60.96C136.912 60.96 136.427 61.1467 136.064 61.52C135.712 61.8827 135.536 62.4107 135.536 63.104V68H133.296V63.104C133.296 62.4107 133.12 61.8827 132.768 61.52C132.416 61.1467 131.936 60.96 131.328 60.96C130.71 60.96 130.219 61.1467 129.856 61.52C129.504 61.8827 129.328 62.4107 129.328 63.104V68H127.088V59.136H129.328V60.208C129.616 59.8347 129.984 59.5414 130.432 59.328C130.891 59.1147 131.392 59.008 131.936 59.008C132.63 59.008 133.248 59.1574 133.792 59.456C134.336 59.744 134.758 60.16 135.056 60.704C135.344 60.192 135.76 59.7814 136.304 59.472C136.859 59.1627 137.456 59.008 138.096 59.008ZM152.094 63.376C152.094 63.696 152.073 63.984 152.03 64.24H145.55C145.603 64.88 145.827 65.3814 146.222 65.744C146.617 66.1067 147.102 66.288 147.678 66.288C148.51 66.288 149.102 65.9307 149.454 65.216H151.87C151.614 66.0694 151.123 66.7734 150.398 67.328C149.673 67.872 148.782 68.144 147.726 68.144C146.873 68.144 146.105 67.9574 145.422 67.584C144.75 67.2 144.222 66.6614 143.838 65.968C143.465 65.2747 143.278 64.4747 143.278 63.568C143.278 62.6507 143.465 61.8454 143.838 61.152C144.211 60.4587 144.734 59.9254 145.406 59.552C146.078 59.1787 146.851 58.992 147.726 58.992C148.569 58.992 149.321 59.1734 149.982 59.536C150.654 59.8987 151.171 60.416 151.534 61.088C151.907 61.7494 152.094 62.512 152.094 63.376ZM149.774 62.736C149.763 62.16 149.555 61.7014 149.15 61.36C148.745 61.008 148.249 60.832 147.662 60.832C147.107 60.832 146.638 61.0027 146.254 61.344C145.881 61.6747 145.651 62.1387 145.566 62.736H149.774ZM155.969 60.512C156.257 60.0427 156.63 59.6747 157.089 59.408C157.558 59.1414 158.092 59.008 158.689 59.008V61.36H158.097C157.393 61.36 156.86 61.5254 156.497 61.856C156.145 62.1867 155.969 62.7627 155.969 63.584V68H153.729V59.136H155.969V60.512ZM172.154 60.288C172.154 60.8854 172.01 61.4454 171.722 61.968C171.445 62.4907 171.002 62.912 170.394 63.232C169.797 63.552 169.04 63.712 168.122 63.712H166.25V68H164.01V56.832H168.122C168.986 56.832 169.722 56.9814 170.33 57.28C170.938 57.5787 171.392 57.9894 171.69 58.512C172 59.0347 172.154 59.6267 172.154 60.288ZM168.026 61.904C168.645 61.904 169.104 61.7654 169.402 61.488C169.701 61.2 169.85 60.8 169.85 60.288C169.85 59.2 169.242 58.656 168.026 58.656H166.25V61.904H168.026ZM177.681 68.144C176.827 68.144 176.059 67.9574 175.377 67.584C174.694 67.2 174.155 66.6614 173.761 65.968C173.377 65.2747 173.185 64.4747 173.185 63.568C173.185 62.6614 173.382 61.8614 173.777 61.168C174.182 60.4747 174.731 59.9414 175.425 59.568C176.118 59.184 176.891 58.992 177.745 58.992C178.598 58.992 179.371 59.184 180.065 59.568C180.758 59.9414 181.302 60.4747 181.697 61.168C182.102 61.8614 182.305 62.6614 182.305 63.568C182.305 64.4747 182.097 65.2747 181.681 65.968C181.275 66.6614 180.721 67.2 180.017 67.584C179.323 67.9574 178.545 68.144 177.681 68.144ZM177.681 66.192C178.086 66.192 178.465 66.096 178.817 65.904C179.179 65.7014 179.467 65.4027 179.681 65.008C179.894 64.6134 180.001 64.1334 180.001 63.568C180.001 62.7254 179.777 62.08 179.329 61.632C178.891 61.1734 178.353 60.944 177.713 60.944C177.073 60.944 176.534 61.1734 176.097 61.632C175.67 62.08 175.457 62.7254 175.457 63.568C175.457 64.4107 175.665 65.0614 176.081 65.52C176.507 65.968 177.041 66.192 177.681 66.192ZM186.188 60.512C186.476 60.0427 186.849 59.6747 187.308 59.408C187.777 59.1414 188.31 59.008 188.908 59.008V61.36H188.316C187.612 61.36 187.078 61.5254 186.716 61.856C186.364 62.1867 186.188 62.7627 186.188 63.584V68H183.948V59.136H186.188V60.512ZM193.025 60.976V65.264C193.025 65.5627 193.094 65.7814 193.233 65.92C193.382 66.048 193.627 66.112 193.969 66.112H195.009V68H193.601C191.713 68 190.769 67.0827 190.769 65.248V60.976H189.713V59.136H190.769V56.944H193.025V59.136H195.009V60.976H193.025ZM196.044 63.536C196.044 62.64 196.22 61.8454 196.572 61.152C196.934 60.4587 197.42 59.9254 198.028 59.552C198.646 59.1787 199.334 58.992 200.092 58.992C200.753 58.992 201.329 59.1254 201.82 59.392C202.321 59.6587 202.721 59.9947 203.02 60.4V59.136H205.276V68H203.02V66.704C202.732 67.12 202.332 67.4667 201.82 67.744C201.318 68.0107 200.737 68.144 200.076 68.144C199.329 68.144 198.646 67.952 198.028 67.568C197.42 67.184 196.934 66.6454 196.572 65.952C196.22 65.248 196.044 64.4427 196.044 63.536ZM203.02 63.568C203.02 63.024 202.913 62.56 202.7 62.176C202.486 61.7814 202.198 61.4827 201.836 61.28C201.473 61.0667 201.084 60.96 200.668 60.96C200.252 60.96 199.868 61.0614 199.516 61.264C199.164 61.4667 198.876 61.7654 198.652 62.16C198.438 62.544 198.332 63.0027 198.332 63.536C198.332 64.0694 198.438 64.5387 198.652 64.944C198.876 65.3387 199.164 65.6427 199.516 65.856C199.878 66.0694 200.262 66.176 200.668 66.176C201.084 66.176 201.473 66.0747 201.836 65.872C202.198 65.6587 202.486 65.36 202.7 64.976C202.913 64.5814 203.02 64.112 203.02 63.568ZM209.703 56.16V68H207.463V56.16H209.703ZM224.321 68L223.105 66.8C222.07 67.728 220.806 68.192 219.313 68.192C218.492 68.192 217.766 68.0534 217.137 67.776C216.518 67.488 216.038 67.088 215.697 66.576C215.356 66.0534 215.185 65.4507 215.185 64.768C215.185 64.032 215.393 63.3707 215.809 62.784C216.225 62.1974 216.838 61.7227 217.649 61.36C217.361 61.008 217.153 60.672 217.025 60.352C216.897 60.0214 216.833 59.6694 216.833 59.296C216.833 58.784 216.966 58.3254 217.233 57.92C217.5 57.504 217.878 57.1787 218.369 56.944C218.87 56.7094 219.452 56.592 220.113 56.592C220.785 56.592 221.361 56.72 221.841 56.976C222.321 57.232 222.678 57.5734 222.913 58C223.148 58.4267 223.249 58.9014 223.217 59.424H221.041C221.052 59.072 220.966 58.8054 220.785 58.624C220.604 58.432 220.358 58.336 220.049 58.336C219.75 58.336 219.5 58.4267 219.297 58.608C219.105 58.7787 219.009 59.0027 219.009 59.28C219.009 59.5467 219.089 59.8134 219.249 60.08C219.409 60.336 219.67 60.656 220.033 61.04L222.849 63.824C222.87 63.8027 222.886 63.7814 222.897 63.76C222.908 63.7387 222.918 63.7174 222.929 63.696L223.841 62.176H226.177L225.057 64.144C224.844 64.56 224.614 64.9547 224.369 65.328L227.073 68H224.321ZM219.377 66.336C220.252 66.336 221.025 66.0267 221.697 65.408L218.945 62.688C217.91 63.1467 217.393 63.7974 217.393 64.64C217.393 65.12 217.574 65.5254 217.937 65.856C218.3 66.176 218.78 66.336 219.377 66.336ZM234.235 58.64V61.44H237.995V63.216H234.235V66.176H238.475V68H231.995V56.816H238.475V58.64H234.235ZM245.406 68L243.582 65.248L241.966 68H239.566L242.462 63.552L239.534 59.136H242.062L243.87 61.872L245.502 59.136H247.902L244.99 63.552L247.934 68H245.406ZM251.391 60.416C251.679 60.0107 252.074 59.6747 252.575 59.408C253.087 59.1307 253.668 58.992 254.319 58.992C255.076 58.992 255.759 59.1787 256.367 59.552C256.986 59.9254 257.471 60.4587 257.823 61.152C258.186 61.8347 258.367 62.6294 258.367 63.536C258.367 64.4427 258.186 65.248 257.823 65.952C257.471 66.6454 256.986 67.184 256.367 67.568C255.759 67.952 255.076 68.144 254.319 68.144C253.668 68.144 253.092 68.0107 252.591 67.744C252.1 67.4774 251.7 67.1414 251.391 66.736V72.224H249.151V59.136H251.391V60.416ZM256.079 63.536C256.079 63.0027 255.967 62.544 255.743 62.16C255.53 61.7654 255.242 61.4667 254.879 61.264C254.527 61.0614 254.143 60.96 253.727 60.96C253.322 60.96 252.938 61.0667 252.575 61.28C252.223 61.4827 251.935 61.7814 251.711 62.176C251.498 62.5707 251.391 63.0347 251.391 63.568C251.391 64.1014 251.498 64.5654 251.711 64.96C251.935 65.3547 252.223 65.6587 252.575 65.872C252.938 66.0747 253.322 66.176 253.727 66.176C254.143 66.176 254.527 66.0694 254.879 65.856C255.242 65.6427 255.53 65.3387 255.743 64.944C255.967 64.5494 256.079 64.08 256.079 63.536ZM268.235 63.376C268.235 63.696 268.213 63.984 268.171 64.24H261.691C261.744 64.88 261.968 65.3814 262.363 65.744C262.757 66.1067 263.243 66.288 263.819 66.288C264.651 66.288 265.243 65.9307 265.595 65.216H268.011C267.755 66.0694 267.264 66.7734 266.539 67.328C265.813 67.872 264.923 68.144 263.867 68.144C263.013 68.144 262.245 67.9574 261.563 67.584C260.891 67.2 260.363 66.6614 259.979 65.968C259.605 65.2747 259.419 64.4747 259.419 63.568C259.419 62.6507 259.605 61.8454 259.979 61.152C260.352 60.4587 260.875 59.9254 261.547 59.552C262.219 59.1787 262.992 58.992 263.867 58.992C264.709 58.992 265.461 59.1734 266.123 59.536C266.795 59.8987 267.312 60.416 267.675 61.088C268.048 61.7494 268.235 62.512 268.235 63.376ZM265.915 62.736C265.904 62.16 265.696 61.7014 265.291 61.36C264.885 61.008 264.389 60.832 263.803 60.832C263.248 60.832 262.779 61.0027 262.395 61.344C262.021 61.6747 261.792 62.1387 261.707 62.736H265.915ZM272.11 60.512C272.398 60.0427 272.771 59.6747 273.23 59.408C273.699 59.1414 274.232 59.008 274.83 59.008V61.36H274.238C273.534 61.36 273 61.5254 272.638 61.856C272.286 62.1867 272.11 62.7627 272.11 63.584V68H269.87V59.136H272.11V60.512ZM277.474 58.08C277.08 58.08 276.749 57.9574 276.482 57.712C276.226 57.456 276.098 57.1414 276.098 56.768C276.098 56.3947 276.226 56.0854 276.482 55.84C276.749 55.584 277.08 55.456 277.474 55.456C277.869 55.456 278.194 55.584 278.45 55.84C278.717 56.0854 278.85 56.3947 278.85 56.768C278.85 57.1414 278.717 57.456 278.45 57.712C278.194 57.9574 277.869 58.08 277.474 58.08ZM278.578 59.136V68H276.338V59.136H278.578ZM289.032 63.376C289.032 63.696 289.01 63.984 288.968 64.24H282.488C282.541 64.88 282.765 65.3814 283.16 65.744C283.554 66.1067 284.04 66.288 284.616 66.288C285.448 66.288 286.04 65.9307 286.392 65.216H288.808C288.552 66.0694 288.061 66.7734 287.336 67.328C286.61 67.872 285.72 68.144 284.664 68.144C283.81 68.144 283.042 67.9574 282.36 67.584C281.688 67.2 281.16 66.6614 280.776 65.968C280.402 65.2747 280.216 64.4747 280.216 63.568C280.216 62.6507 280.402 61.8454 280.776 61.152C281.149 60.4587 281.672 59.9254 282.344 59.552C283.016 59.1787 283.789 58.992 284.664 58.992C285.506 58.992 286.258 59.1734 286.92 59.536C287.592 59.8987 288.109 60.416 288.472 61.088C288.845 61.7494 289.032 62.512 289.032 63.376ZM286.712 62.736C286.701 62.16 286.493 61.7014 286.088 61.36C285.682 61.008 285.186 60.832 284.6 60.832C284.045 60.832 283.576 61.0027 283.192 61.344C282.818 61.6747 282.589 62.1387 282.504 62.736H286.712ZM295.579 59.008C296.635 59.008 297.488 59.344 298.139 60.016C298.789 60.6774 299.115 61.6054 299.115 62.8V68H296.875V63.104C296.875 62.4 296.699 61.8614 296.347 61.488C295.995 61.104 295.515 60.912 294.907 60.912C294.288 60.912 293.797 61.104 293.435 61.488C293.083 61.8614 292.907 62.4 292.907 63.104V68H290.667V59.136H292.907V60.24C293.205 59.856 293.584 59.5574 294.043 59.344C294.512 59.12 295.024 59.008 295.579 59.008ZM300.669 63.568C300.669 62.6507 300.855 61.8507 301.229 61.168C301.602 60.4747 302.119 59.9414 302.781 59.568C303.442 59.184 304.199 58.992 305.053 58.992C306.151 58.992 307.058 59.2694 307.773 59.824C308.498 60.368 308.983 61.136 309.229 62.128H306.813C306.685 61.744 306.466 61.4454 306.157 61.232C305.858 61.008 305.485 60.896 305.037 60.896C304.397 60.896 303.89 61.1307 303.517 61.6C303.143 62.0587 302.957 62.7147 302.957 63.568C302.957 64.4107 303.143 65.0667 303.517 65.536C303.89 65.9947 304.397 66.224 305.037 66.224C305.943 66.224 306.535 65.8187 306.813 65.008H309.229C308.983 65.968 308.498 66.7307 307.773 67.296C307.047 67.8614 306.141 68.144 305.053 68.144C304.199 68.144 303.442 67.9574 302.781 67.584C302.119 67.2 301.602 66.6667 301.229 65.984C300.855 65.2907 300.669 64.4854 300.669 63.568ZM319.11 63.376C319.11 63.696 319.088 63.984 319.046 64.24H312.566C312.619 64.88 312.843 65.3814 313.238 65.744C313.632 66.1067 314.118 66.288 314.694 66.288C315.526 66.288 316.118 65.9307 316.47 65.216H318.886C318.63 66.0694 318.139 66.7734 317.414 67.328C316.688 67.872 315.798 68.144 314.742 68.144C313.888 68.144 313.12 67.9574 312.438 67.584C311.766 67.2 311.238 66.6614 310.854 65.968C310.48 65.2747 310.294 64.4747 310.294 63.568C310.294 62.6507 310.48 61.8454 310.854 61.152C311.227 60.4587 311.75 59.9254 312.422 59.552C313.094 59.1787 313.867 58.992 314.742 58.992C315.584 58.992 316.336 59.1734 316.998 59.536C317.67 59.8987 318.187 60.416 318.55 61.088C318.923 61.7494 319.11 62.512 319.11 63.376ZM316.79 62.736C316.779 62.16 316.571 61.7014 316.166 61.36C315.76 61.008 315.264 60.832 314.678 60.832C314.123 60.832 313.654 61.0027 313.27 61.344C312.896 61.6747 312.667 62.1387 312.582 62.736H316.79ZM323.981 63.536C323.981 62.64 324.157 61.8454 324.509 61.152C324.872 60.4587 325.357 59.9254 325.965 59.552C326.584 59.1787 327.272 58.992 328.029 58.992C328.69 58.992 329.266 59.1254 329.757 59.392C330.258 59.6587 330.658 59.9947 330.957 60.4V59.136H333.213V68H330.957V66.704C330.669 67.12 330.269 67.4667 329.757 67.744C329.256 68.0107 328.674 68.144 328.013 68.144C327.266 68.144 326.584 67.952 325.965 67.568C325.357 67.184 324.872 66.6454 324.509 65.952C324.157 65.248 323.981 64.4427 323.981 63.536ZM330.957 63.568C330.957 63.024 330.85 62.56 330.637 62.176C330.424 61.7814 330.136 61.4827 329.773 61.28C329.41 61.0667 329.021 60.96 328.605 60.96C328.189 60.96 327.805 61.0614 327.453 61.264C327.101 61.4667 326.813 61.7654 326.589 62.16C326.376 62.544 326.269 63.0027 326.269 63.536C326.269 64.0694 326.376 64.5387 326.589 64.944C326.813 65.3387 327.101 65.6427 327.453 65.856C327.816 66.0694 328.2 66.176 328.605 66.176C329.021 66.176 329.41 66.0747 329.773 65.872C330.136 65.6587 330.424 65.36 330.637 64.976C330.85 64.5814 330.957 64.112 330.957 63.568ZM337.641 56.16V68H335.401V56.16H337.641ZM342.094 56.16V68H339.854V56.16H342.094ZM353.032 59.008C354.088 59.008 354.941 59.344 355.592 60.016C356.242 60.6774 356.568 61.6054 356.568 62.8V68H354.328V63.104C354.328 62.4 354.152 61.8614 353.8 61.488C353.448 61.104 352.968 60.912 352.36 60.912C351.741 60.912 351.25 61.104 350.888 61.488C350.536 61.8614 350.36 62.4 350.36 63.104V68H348.12V59.136H350.36V60.24C350.658 59.856 351.037 59.5574 351.496 59.344C351.965 59.12 352.477 59.008 353.032 59.008ZM366.938 63.376C366.938 63.696 366.916 63.984 366.874 64.24H360.394C360.447 64.88 360.671 65.3814 361.066 65.744C361.46 66.1067 361.946 66.288 362.522 66.288C363.354 66.288 363.946 65.9307 364.298 65.216H366.714C366.458 66.0694 365.967 66.7734 365.242 67.328C364.516 67.872 363.626 68.144 362.57 68.144C361.716 68.144 360.948 67.9574 360.266 67.584C359.594 67.2 359.066 66.6614 358.682 65.968C358.308 65.2747 358.122 64.4747 358.122 63.568C358.122 62.6507 358.308 61.8454 358.682 61.152C359.055 60.4587 359.578 59.9254 360.25 59.552C360.922 59.1787 361.695 58.992 362.57 58.992C363.412 58.992 364.164 59.1734 364.826 59.536C365.498 59.8987 366.015 60.416 366.378 61.088C366.751 61.7494 366.938 62.512 366.938 63.376ZM364.618 62.736C364.607 62.16 364.399 61.7014 363.994 61.36C363.588 61.008 363.092 60.832 362.506 60.832C361.951 60.832 361.482 61.0027 361.098 61.344C360.724 61.6747 360.495 62.1387 360.41 62.736H364.618ZM380.861 59.136L378.269 68H375.853L374.237 61.808L372.621 68H370.189L367.581 59.136H369.853L371.421 65.888L373.117 59.136H375.485L377.149 65.872L378.717 59.136H380.861ZM83.168 84.976H81.616V92H79.344V84.976H78.336V83.136H79.344V82.688C79.344 81.6 79.6534 80.8 80.272 80.288C80.8907 79.776 81.824 79.536 83.072 79.568V81.456C82.528 81.4454 82.1494 81.536 81.936 81.728C81.7227 81.92 81.616 82.2667 81.616 82.768V83.136H83.168V84.976ZM92.8597 87.376C92.8597 87.696 92.8383 87.984 92.7957 88.24H86.3157C86.369 88.88 86.593 89.3814 86.9877 89.744C87.3823 90.1067 87.8677 90.288 88.4437 90.288C89.2757 90.288 89.8677 89.9307 90.2197 89.216H92.6357C92.3797 90.0694 91.889 90.7734 91.1637 91.328C90.4383 91.872 89.5477 92.144 88.4917 92.144C87.6383 92.144 86.8703 91.9574 86.1877 91.584C85.5157 91.2 84.9877 90.6614 84.6037 89.968C84.2303 89.2747 84.0437 88.4747 84.0437 87.568C84.0437 86.6507 84.2303 85.8454 84.6037 85.152C84.977 84.4587 85.4997 83.9254 86.1717 83.552C86.8437 83.1787 87.617 82.992 88.4917 82.992C89.3343 82.992 90.0863 83.1734 90.7477 83.536C91.4197 83.8987 91.937 84.416 92.2997 85.088C92.673 85.7494 92.8597 86.512 92.8597 87.376ZM90.5397 86.736C90.529 86.16 90.321 85.7014 89.9157 85.36C89.5103 85.008 89.0143 84.832 88.4277 84.832C87.873 84.832 87.4037 85.0027 87.0197 85.344C86.6463 85.6747 86.417 86.1387 86.3317 86.736H90.5397ZM93.9187 87.536C93.9187 86.64 94.0947 85.8454 94.4467 85.152C94.8093 84.4587 95.2947 83.9254 95.9027 83.552C96.5213 83.1787 97.2093 82.992 97.9667 82.992C98.628 82.992 99.204 83.1254 99.6947 83.392C100.196 83.6587 100.596 83.9947 100.895 84.4V83.136H103.151V92H100.895V90.704C100.607 91.12 100.207 91.4667 99.6947 91.744C99.1933 92.0107 98.612 92.144 97.9507 92.144C97.204 92.144 96.5213 91.952 95.9027 91.568C95.2947 91.184 94.8093 90.6454 94.4467 89.952C94.0947 89.248 93.9187 88.4427 93.9187 87.536ZM100.895 87.568C100.895 87.024 100.788 86.56 100.575 86.176C100.361 85.7814 100.073 85.4827 99.7107 85.28C99.348 85.0667 98.9587 84.96 98.5427 84.96C98.1267 84.96 97.7427 85.0614 97.3907 85.264C97.0387 85.4667 96.7507 85.7654 96.5267 86.16C96.3133 86.544 96.2067 87.0027 96.2067 87.536C96.2067 88.0694 96.3133 88.5387 96.5267 88.944C96.7507 89.3387 97.0387 89.6427 97.3907 89.856C97.7533 90.0694 98.1373 90.176 98.5427 90.176C98.9587 90.176 99.348 90.0747 99.7107 89.872C100.073 89.6587 100.361 89.36 100.575 88.976C100.788 88.5814 100.895 88.112 100.895 87.568ZM107.946 84.976V89.264C107.946 89.5627 108.016 89.7814 108.154 89.92C108.304 90.048 108.549 90.112 108.89 90.112H109.93V92H108.522C106.634 92 105.69 91.0827 105.69 89.248V84.976H104.634V83.136H105.69V80.944H107.946V83.136H109.93V84.976H107.946ZM119.91 83.136V92H117.654V90.88C117.366 91.264 116.987 91.568 116.518 91.792C116.059 92.0054 115.558 92.112 115.014 92.112C114.32 92.112 113.707 91.968 113.174 91.68C112.64 91.3814 112.219 90.9494 111.91 90.384C111.611 89.808 111.462 89.1254 111.462 88.336V83.136H113.702V88.016C113.702 88.72 113.878 89.264 114.23 89.648C114.582 90.0214 115.062 90.208 115.67 90.208C116.288 90.208 116.774 90.0214 117.126 89.648C117.478 89.264 117.654 88.72 117.654 88.016V83.136H119.91ZM124.36 84.512C124.648 84.0427 125.021 83.6747 125.48 83.408C125.949 83.1414 126.482 83.008 127.08 83.008V85.36H126.488C125.784 85.36 125.25 85.5254 124.888 85.856C124.536 86.1867 124.36 86.7627 124.36 87.584V92H122.12V83.136H124.36V84.512ZM136.828 87.376C136.828 87.696 136.807 87.984 136.764 88.24H130.284C130.338 88.88 130.562 89.3814 130.956 89.744C131.351 90.1067 131.836 90.288 132.412 90.288C133.244 90.288 133.836 89.9307 134.188 89.216H136.604C136.348 90.0694 135.858 90.7734 135.132 91.328C134.407 91.872 133.516 92.144 132.46 92.144C131.607 92.144 130.839 91.9574 130.156 91.584C129.484 91.2 128.956 90.6614 128.572 89.968C128.199 89.2747 128.012 88.4747 128.012 87.568C128.012 86.6507 128.199 85.8454 128.572 85.152C128.946 84.4587 129.468 83.9254 130.14 83.552C130.812 83.1787 131.586 82.992 132.46 82.992C133.303 82.992 134.055 83.1734 134.716 83.536C135.388 83.8987 135.906 84.416 136.268 85.088C136.642 85.7494 136.828 86.512 136.828 87.376ZM134.508 86.736C134.498 86.16 134.29 85.7014 133.884 85.36C133.479 85.008 132.983 84.832 132.396 84.832C131.842 84.832 131.372 85.0027 130.988 85.344C130.615 85.6747 130.386 86.1387 130.3 86.736H134.508ZM141.855 92.144C141.13 92.144 140.479 92.016 139.903 91.76C139.327 91.4934 138.869 91.136 138.527 90.688C138.197 90.24 138.015 89.744 137.983 89.2H140.239C140.282 89.5414 140.447 89.824 140.735 90.048C141.034 90.272 141.402 90.384 141.839 90.384C142.266 90.384 142.597 90.2987 142.831 90.128C143.077 89.9574 143.199 89.7387 143.199 89.472C143.199 89.184 143.05 88.9707 142.751 88.832C142.463 88.6827 141.999 88.5227 141.359 88.352C140.698 88.192 140.154 88.0267 139.727 87.856C139.311 87.6854 138.949 87.424 138.639 87.072C138.341 86.72 138.191 86.2454 138.191 85.648C138.191 85.1574 138.33 84.7094 138.607 84.304C138.895 83.8987 139.301 83.5787 139.823 83.344C140.357 83.1094 140.981 82.992 141.695 82.992C142.751 82.992 143.594 83.2587 144.223 83.792C144.853 84.3147 145.199 85.024 145.263 85.92H143.119C143.087 85.568 142.938 85.2907 142.671 85.088C142.415 84.8747 142.069 84.768 141.631 84.768C141.226 84.768 140.911 84.8427 140.687 84.992C140.474 85.1414 140.367 85.3494 140.367 85.616C140.367 85.9147 140.517 86.144 140.815 86.304C141.114 86.4534 141.578 86.608 142.207 86.768C142.847 86.928 143.375 87.0934 143.791 87.264C144.207 87.4347 144.565 87.7014 144.863 88.064C145.173 88.416 145.333 88.8854 145.343 89.472C145.343 89.984 145.199 90.4427 144.911 90.848C144.634 91.2534 144.229 91.5734 143.695 91.808C143.173 92.032 142.559 92.144 141.855 92.144ZM153.891 80.64L153.635 88.368H151.747L151.475 80.64H153.891ZM152.739 92.112C152.333 92.112 151.997 91.9894 151.731 91.744C151.475 91.488 151.347 91.1734 151.347 90.8C151.347 90.4267 151.475 90.1174 151.731 89.872C151.997 89.616 152.333 89.488 152.739 89.488C153.133 89.488 153.459 89.616 153.715 89.872C153.971 90.1174 154.099 90.4267 154.099 90.8C154.099 91.1734 153.971 91.488 153.715 91.744C153.459 91.9894 153.133 92.112 152.739 92.112ZM159.547 80.64L159.291 88.368H157.403L157.131 80.64H159.547ZM158.395 92.112C157.99 92.112 157.654 91.9894 157.387 91.744C157.131 91.488 157.003 91.1734 157.003 90.8C157.003 90.4267 157.131 90.1174 157.387 89.872C157.654 89.616 157.99 89.488 158.395 89.488C158.79 89.488 159.115 89.616 159.371 89.872C159.627 90.1174 159.755 90.4267 159.755 90.8C159.755 91.1734 159.627 91.488 159.371 91.744C159.115 91.9894 158.79 92.112 158.395 92.112Z" fill="white"/>
<defs>
<filter id="filter0_d_110_69" x="8" y="10.3229" width="411" height="102" filterUnits="userSpaceOnUse" color-interpolation-filters="sRGB">
<feFlood flood-opacity="0" result="BackgroundImageFix"/>
<feColorMatrix in="SourceAlpha" type="matrix" values="0 0 0 0 0 0 0 0 0 0 0 0 0 0 0 0 0 0 127 0" result="hardAlpha"/>
<feMorphology radius="2" operator="erode" in="SourceAlpha" result="effect1_dropShadow_110_69"/>
<feOffset/>
<feGaussianBlur stdDeviation="6.5"/>
<feColorMatrix type="matrix" values="0 0 0 0 0.105882 0 0 0 0 0.180392 0 0 0 0 0.368627 0 0 0 0.08 0"/>
<feBlend mode="normal" in2="BackgroundImageFix" result="effect1_dropShadow_110_69"/>
<feBlend mode="normal" in="SourceGraphic" in2="effect1_dropShadow_110_69" result="shape"/>
</filter>
<filter id="filter1_d_110_69" x="0.752869" y="0.174906" width="412.199" height="122.582" filterUnits="userSpaceOnUse" color-interpolation-filters="sRGB">
<feFlood flood-opacity="0" result="BackgroundImageFix"/>
<feColorMatrix in="SourceAlpha" type="matrix" values="0 0 0 0 0 0 0 0 0 0 0 0 0 0 0 0 0 0 127 0" result="hardAlpha"/>
<feMorphology radius="2" operator="erode" in="SourceAlpha" result="effect1_dropShadow_110_69"/>
<feOffset/>
<feGaussianBlur stdDeviation="6.5"/>
<feColorMatrix type="matrix" values="0 0 0 0 0.105882 0 0 0 0 0.180392 0 0 0 0 0.368627 0 0 0 0.08 0"/>
<feBlend mode="normal" in2="BackgroundImageFix" result="effect1_dropShadow_110_69"/>
<feBlend mode="normal" in="SourceGraphic" in2="effect1_dropShadow_110_69" result="shape"/>
</filter>
</defs>
</svg>
